<?xml version="1.0" encoding="UTF-8" standalone="no" ?>
<!DOCTYPE svg PUBLIC "-//W3C//DTD SVG 1.1//EN" "http://www.w3.org/Graphics/SVG/1.1/DTD/svg11.dtd">
<svg xmlns="http://www.w3.org/2000/svg" xmlns:xlink="http://www.w3.org/1999/xlink" version="1.1" width="500" height="500" viewBox="0 0 500 500" xml:space="preserve">
<defs>
</defs>
<g transform="matrix(1.99 0 0 1.99 244.47 250.03)"  >
<g style=""   >
		<g transform="matrix(4.39 0 0 4.39 0.06 -31.34)"  >
<path style="stroke: none; stroke-width: 1; stroke-dasharray: none; stroke-linecap: butt; stroke-dashoffset: 0; stroke-linejoin: miter; stroke-miterlimit: 4; fill: rgb(83, 130, 173); fill-rule: nonzero; opacity: 1;"  transform=" translate(-19.44, -38.7)" d="M 31.32 60 l -3.3 -7.68 l -17.16 0 l -3.3 7.68 l -6.96 0 l 18.48 -42.6 l 0.72 0 l 18.48 42.6 l -6.96 0 z M 13.44 46.32 l 12 0 l -6 -13.92 z" stroke-linecap="round" />
</g>
		<g transform="matrix(1.51 0 0 1.51 -0.17 103.45)"  >
<path style="stroke: none; stroke-width: 1; stroke-dasharray: none; stroke-linecap: butt; stroke-dashoffset: 0; stroke-linejoin: miter; stroke-miterlimit: 4; fill: rgb(83, 130, 173); fill-rule: nonzero; opacity: 1;"  transform=" translate(-55.22, -25.89)" d="M 22.539 40 l -2.0508 -5.8203 l -11.855 0 l -2.0508 5.8203 l -5.9961 0 l 10.391 -28.223 l 7.168 0 l 10.391 28.223 l -5.9961 0 z M 10.352 29.277 l 8.418 0 l -4.1992 -11.973 z M 38.63279375 34.8242 l 8.8477 0 l 0 5.1758 l -14.707 0 l 0 -28.223 l 5.8594 0 l 0 23.047 z M 51.95308125 40 l 0 -28.223 l 5.8594 0 l 0 28.223 l -5.8594 0 z M 81.7973125 40 l -8.7695 -11.992 l -2.0703 0 l 0 11.992 l -5.8594 0 l 0 -28.223 l 5.8594 0 l 0 11.094 l 1.9922 0 l 8.8477 -11.094 l 7.1484 0 l -10.938 13.496 l 11.27 14.727 l -7.4805 0 z M 109.84421875 16.934 l -10.469 0 l 0 6.4063 l 9.2773 0 l 0 5.0977 l -9.2773 0 l 0 6.3867 l 10.469 0 l 0 5.1758 l -16.367 0 l 0 -28.223 l 16.367 0 l 0 5.1563 z" stroke-linecap="round" />
</g>
</g>
</g>
</svg>